# xmcd CD database file
#
# Track frame offsets:
#	150
#	13722
#	27436
#	41262
#	53833
#	68457
#	83125
#	96472
#	109970
#	120263
#	133387
#	146789
#	159989
#	171971
#	184745
#	198791
#	212770
#	225078
#	240007
#	253785
#
# Disc length: 3527 seconds
#
# Revision: 0
# Processed by: cddbd v1.5.1PL0 Copyright (c) Steve Scherf et al.
# Submitted via: CDex 1.51
#
DISCID=050dc514
DTITLE=Billie Holiday - Night and Day
DYEAR=1996
DGENRE=Jazz
TTITLE0=What a Little Moonlight Can Do
TTITLE1=Miss Brown to You
TTITLE2=Twenty Four Hours a Day
TTITLE3=Yankee Doodle Never Went to Town
TTITLE4=If You Were Mine
TTITLE5=These 'n' That 'n' Those
TTITLE6=Spreadin' Rhythm Around
TTITLE7=Let's Call a Heart a Heart
TTITLE8=Please Keep Me in Your Dreams
TTITLE9=I Wish I Had You
TTITLE10=I'll Never Fail You
TTITLE11=You're Gonna See a Lot of Me
TTITLE12=Hello, My Darling
TTITLE13=Let's Dream in the Moonlight
TTITLE14=More Than You Know
TTITLE15=Night and Day
TTITLE16=What is This Going to Get Us?
TTITLE17=Loveless Love
TTITLE18=Georgia On My Mind
TTITLE19=Romance in the Dark
EXTD=YEAR: 1996
EXTT0=
EXTT1=
EXTT2=
EXTT3=
EXTT4=
EXTT5=
EXTT6=
EXTT7=
EXTT8=
EXTT9=
EXTT10=
EXTT11=
EXTT12=
EXTT13=
EXTT14=
EXTT15=
EXTT16=
EXTT17=
EXTT18=
EXTT19=
PLAYORDER=
